PathFileType	4	(X/Y/Z)	C:\Users\°ÂÌØÂü\Desktop\20201223\Trimmed_bx_y_0_501.trc
DataRate	CameraRate	NumFrames	NumMarkers	Units	OrigDataRate	OrigDataStartFrame	OrigNumFrames
50.00	50.00	      5	43	mm	50.00	654	      1306
Frame#	Time	Top.Head			R.Acromium			L.Acromium			Sternum			R.ASIS			L.ASIS			V.Sacral			R.Thigh.Upper			R.Thigh.Front			R.Thigh.Rear			R.Knee.Lat			R.Knee.Med			R.Shank.Upper			R.Shank.Front			R.Shank.Rear			R.Ankle.Lat			R.Midfoot.Lat			R.Toe.Lat			R.Toe.Tip			R.Toe.Med			R.Ankle.Med			R.Midfoot.Sup			R.Heel			L.Thigh.Upper			L.Thigh.Front			L.Thigh.Rear			L.Knee.Lat			L.Knee.Med			L.Shank.Upper			L.Shank.Front			L.Shank.Rear			L.Ankle.Lat			L.Midfoot.Lat			L.Toe.Lat			L.Toe.Tip			L.Toe.Med			L.Ankle.Med			L.Midfoot.Sup			L.Heel			origin1 front left			origin2 front right			origin 3 back right			origin 4 back leftt			
		X1	Y1	Z1	X2	Y2	Z2	X3	Y3	Z3	X4	Y4	Z4	X5	Y5	Z5	X6	Y6	Z6	X7	Y7	Z7	X8	Y8	Z8	X9	Y9	Z9	X10	Y10	Z10	X11	Y11	Z11	X12	Y12	Z12	X13	Y13	Z13	X14	Y14	Z14	X15	Y15	Z15	X16	Y16	Z16	X17	Y17	Z17	X18	Y18	Z18	X19	Y19	Z19	X20	Y20	Z20	X21	Y21	Z21	X22	Y22	Z22	X23	Y23	Z23	X24	Y24	Z24	X25	Y25	Z25	X26	Y26	Z26	X27	Y27	Z27	X28	Y28	Z28	X29	Y29	Z29	X30	Y30	Z30	X31	Y31	Z31	X32	Y32	Z32	X33	Y33	Z33	X34	Y34	Z34	X35	Y35	Z35	X36	Y36	Z36	X37	Y37	Z37	X38	Y38	Z38	X39	Y39	Z39	X40	Y40	Z40	X41	Y41	Z41	X42	Y42	Z42	X43	Y43	Z43	

654	13.060	-239.88654	240.15424	1654.63904	-382.37073	49.00015	1382.82263	-387.69003	441.50302	1388.72156	-416.96448	257.29721	1237.31079	-626.36609	158.81970	1031.84302	-620.15594	371.95618	1030.02136	-812.75293	253.39322	1086.04236	-674.57520	100.25343	886.77765	-621.41992	154.56091	836.91412	-715.55212	91.53254	743.82672	-722.88403	123.43610	592.30804	-689.76849	229.08757	553.27460	-741.59454	123.72590	534.25775	-658.05505	167.87997	543.58124	-767.67145	125.31646	461.83609	-692.22852	143.04471	211.90070	-616.71277	77.64938	165.64633	-571.04364	51.65889	161.10518	-492.34256	93.46232	161.60194	-532.34033	145.13402	164.28929	-640.52753	215.72304	221.88229	-594.34924	189.44769	170.00887	-718.43475	212.11157	169.79434	-667.37415	439.62836	877.81268	-615.27734	378.36719	830.81299	-699.55676	447.65723	742.58575	-722.75958	422.22455	617.32819	-678.15942	318.51077	569.38458	-720.57556	420.44263	556.26520	-662.22131	378.03784	538.79126	-761.84546	426.40009	498.72067	-684.01746	418.45331	210.60849	-585.41699	468.31628	163.57283	-546.35626	479.58154	160.81378	-489.02914	425.87766	168.05516	-525.50037	386.32120	176.74939	-648.44421	330.19073	209.92386	-596.54779	350.16190	169.94624	-732.45306	345.89572	164.92023	-444.15182	448.58566	147.87714	-450.33292	75.73619	143.75935	-806.25500	82.60436	142.62312	-798.75134	457.94064	145.41360	
655	13.080	-244.59955	240.04843	1659.85510	-383.96066	49.11727	1386.30933	-389.53183	441.67377	1392.29382	-417.30612	257.58344	1240.22839	-624.73926	158.98000	1031.91113	-618.87524	372.05087	1030.74182	-811.52319	253.42079	1085.74207	-672.82202	100.27152	887.07471	-619.81409	154.64958	837.04590	-714.02551	91.72546	743.99677	-721.86121	123.43198	592.45587	-688.86786	229.25645	553.37640	-740.74945	123.81077	534.44324	-657.19244	167.86472	543.70789	-767.04529	125.33967	462.15225	-692.18585	143.06253	212.00737	-616.69336	77.69643	165.63852	-571.02747	51.70750	161.10762	-492.34537	93.46648	161.57716	-532.31622	145.18018	164.25801	-640.57629	215.78868	221.55696	-594.25085	189.49957	169.92441	-718.46613	212.13779	169.67421	-665.90027	439.72946	878.18420	-613.88666	378.48709	831.06372	-698.46820	447.57162	742.80389	-721.87854	422.23547	617.57629	-677.37183	318.50290	569.47137	-719.86310	420.31271	556.35547	-661.46765	378.06308	538.86798	-761.23859	426.35440	498.87411	-683.99445	418.40210	210.61963	-585.42035	468.27469	163.54454	-546.35693	479.55637	160.81726	-489.03531	425.88693	168.04852	-525.49036	386.29816	176.72321	-648.45264	330.15945	209.80440	-596.44391	350.06741	169.99663	-732.43451	345.90417	164.92546	-444.15274	448.60559	147.86020	-450.32733	75.74072	143.76711	-806.24982	82.57093	142.63940	-798.82080	457.91534	145.52548	
656	13.100	-249.56570	239.94891	1665.16064	-385.65137	49.19433	1389.88647	-391.46448	441.83118	1395.93042	-417.67102	257.87405	1243.20557	-623.08936	159.00926	1032.15210	-617.57245	372.18155	1031.48962	-810.21387	253.43666	1085.36865	-671.01593	100.29117	887.39056	-618.17084	154.74205	837.20093	-712.44995	91.87476	744.24304	-720.79944	123.43606	592.57770	-687.96210	229.50690	553.47815	-739.87927	123.81039	534.68500	-656.31055	167.89479	543.77966	-766.40594	125.44537	462.42084	-692.12256	143.05112	212.17316	-616.67871	77.71044	165.67459	-571.03052	51.74813	161.11957	-492.36343	93.46125	161.56770	-532.29474	145.20865	164.24268	-640.58136	215.94211	221.28525	-594.17810	189.49655	169.92612	-718.55737	212.09195	169.62401	-664.41895	439.85266	878.47278	-612.49695	378.61346	831.26746	-697.38770	447.52325	743.07941	-720.97400	422.35016	617.83313	-676.59222	318.45374	569.62366	-719.15430	420.18903	556.47760	-660.70264	378.07428	538.93994	-760.59937	426.35693	498.95236	-683.97601	418.35788	210.61806	-585.40491	468.28143	163.55186	-546.36188	479.53168	160.81726	-489.00827	425.90439	168.06175	-525.48108	386.27759	176.71603	-648.42065	330.08511	209.81445	-596.24884	349.85635	170.20680	-732.43237	345.91699	164.92949	-444.17636	448.61829	147.84433	-450.32394	75.74075	143.77664	-806.24414	82.56526	142.64772	-798.92236	457.93793	145.59006	
657	13.120	-254.74185	239.91478	1670.55371	-387.44177	49.27619	1393.50684	-393.49042	442.01324	1399.61987	-418.05948	258.16904	1246.24207	-621.41351	158.87476	1032.61182	-616.24756	372.34912	1032.26477	-808.81848	253.43427	1084.90808	-669.17896	100.33577	887.65259	-616.49133	154.82434	837.35846	-710.84882	91.92406	744.55945	-719.71735	123.46954	592.67883	-687.05078	229.67223	553.57703	-738.97296	123.75669	534.92456	-655.39301	167.94965	543.78772	-765.72437	125.58954	462.66092	-692.05243	143.01830	212.35197	-616.67572	77.70419	165.70851	-571.03278	51.77625	161.13823	-492.37744	93.43965	161.57089	-532.26465	145.21797	164.24922	-640.54608	216.11826	221.05888	-594.09998	189.41016	170.04901	-718.66785	212.02176	169.63425	-662.94073	439.96307	878.67114	-611.08710	378.74335	831.44128	-696.27081	447.47986	743.40265	-720.06720	422.47058	618.10162	-675.76923	318.42703	569.83856	-718.43250	420.13312	556.63507	-659.93640	378.07169	539.01453	-759.86230	426.40582	498.92303	-683.96368	418.32169	210.60512	-585.38733	468.32202	163.57858	-546.36609	479.51880	160.81599	-488.94907	425.93216	168.09047	-525.46161	386.26321	176.71461	-648.35913	329.99719	209.91595	-595.96173	349.51880	170.57269	-732.46136	345.92853	164.92578	-444.20276	448.61920	147.84396	-450.31839	75.73045	143.78825	-806.23920	82.58212	142.65819	-799.06244	457.97311	145.57906	
658	13.140	-260.09726	239.96899	1676.01025	-389.32831	49.39422	1397.13965	-395.60559	442.23453	1403.33691	-418.47177	258.46844	1249.33801	-619.70801	158.56247	1033.31653	-614.90057	372.55457	1033.06787	-807.37860	253.39124	1084.43286	-667.29315	100.42151	887.82379	-614.76990	154.90738	837.50507	-709.23425	91.92204	744.85382	-718.60510	123.50090	592.80566	-686.10400	229.66487	553.65173	-738.02783	123.71836	535.09583	-654.43298	167.97710	543.76831	-764.98840	125.70174	462.90747	-691.99603	142.97737	212.49402	-616.68323	77.68980	165.70796	-571.01276	51.78845	161.16330	-492.36926	93.41460	161.57634	-532.22455	145.21811	164.27286	-640.42401	216.32048	220.93053	-593.96344	189.22383	170.29868	-718.75085	211.95740	169.68071	-661.44922	440.05560	878.84595	-609.63141	378.87469	831.62085	-695.10217	447.41306	743.70612	-719.16632	422.55984	618.39398	-674.88068	318.46829	570.06293	-717.70551	420.13492	556.81189	-659.17725	378.05963	539.08594	-759.04816	426.42545	498.85638	-683.94293	418.29153	210.60132	-585.37372	468.35773	163.60118	-546.37000	479.51935	160.81319	-488.86694	425.96484	168.12704	-525.43951	386.26144	176.71396	-648.29907	329.92651	210.02017	-595.64911	349.14020	170.97682	-732.52753	345.93683	164.91159	-444.21310	448.61780	147.86945	-450.30896	75.71197	143.79793	-806.23706	82.60400	142.66997	-799.21375	457.99738	145.53104	
